<svg width="274" height="43" viewBox="0 0 274 43" fill="none" xmlns="http://www.w3.org/2000/svg">
<path d="M0.309688 33V5H16.2697C18.723 5 20.7897 5.28 22.4697 5.84C24.1764 6.4 25.4564 7.18667 26.3097 8.2C27.163 9.21333 27.5897 10.44 27.5897 11.88C27.5897 13.4267 27.123 14.76 26.1897 15.88C25.2564 16.9733 23.843 17.7333 21.9497 18.16L22.1497 17.44C23.3497 17.7067 24.4697 18.1333 25.5097 18.72C26.5764 19.28 27.4297 20.04 28.0697 21C28.7364 21.96 29.0697 23.1333 29.0697 24.52C29.0697 26.2267 28.7097 27.6267 27.9897 28.72C27.2697 29.8133 26.323 30.68 25.1497 31.32C23.9764 31.9333 22.6964 32.3733 21.3097 32.64C19.9497 32.88 18.6164 33 17.3097 33H0.309688ZM6.70969 27.32H17.4697C18.403 27.32 19.2297 27.2133 19.9497 27C20.6964 26.7867 21.283 26.4533 21.7097 26C22.163 25.52 22.3897 24.92 22.3897 24.2C22.3897 23.3733 22.1097 22.7467 21.5497 22.32C20.9897 21.8667 20.3097 21.56 19.5097 21.4C18.7097 21.2133 17.963 21.12 17.2697 21.12H6.70969V27.32ZM6.70969 16H16.3497C17.2297 16 18.003 15.8933 18.6697 15.68C19.363 15.4667 19.8964 15.16 20.2697 14.76C20.6697 14.36 20.8697 13.8533 20.8697 13.24C20.8697 12.3067 20.403 11.6533 19.4697 11.28C18.563 10.88 17.443 10.68 16.1097 10.68H6.70969V16ZM53.8566 33.4C50.9766 33.4 48.4299 32.9333 46.2166 32C44.0032 31.04 42.2699 29.7333 41.0166 28.08C39.7899 26.4 39.1766 24.4933 39.1766 22.36C39.1766 20.2 39.7899 18.2933 41.0166 16.64C42.2699 14.9867 44.0032 13.6933 46.2166 12.76C48.4299 11.8 50.9766 11.32 53.8566 11.32C56.7366 11.32 59.2699 11.8 61.4566 12.76C63.6432 13.6933 65.3499 14.9867 66.5766 16.64C67.8299 18.2933 68.4566 20.2 68.4566 22.36C68.4566 24.4933 67.8299 26.4 66.5766 28.08C65.3499 29.7333 63.6432 31.04 61.4566 32C59.2699 32.9333 56.7366 33.4 53.8566 33.4ZM53.8566 27.88C55.3499 27.88 56.7099 27.6533 57.9366 27.2C59.1899 26.72 60.1766 26.0667 60.8966 25.24C61.6432 24.4133 62.0032 23.4533 61.9766 22.36C62.0032 21.2667 61.6432 20.3067 60.8966 19.48C60.1766 18.6267 59.1899 17.9733 57.9366 17.52C56.7099 17.04 55.3499 16.8 53.8566 16.8C52.3366 16.8 50.9499 17.04 49.6966 17.52C48.4699 17.9733 47.4832 18.6133 46.7366 19.44C46.0166 20.2667 45.6566 21.24 45.6566 22.36C45.6566 23.4533 46.0166 24.4133 46.7366 25.24C47.4832 26.0667 48.4699 26.72 49.6966 27.2C50.9499 27.6533 52.3366 27.88 53.8566 27.88ZM90.6641 33.36C88.1041 33.36 85.8907 32.8933 84.0241 31.96C82.1841 31.0267 80.7574 29.7333 79.7441 28.08C78.7574 26.4267 78.2641 24.5333 78.2641 22.4C78.2641 20.24 78.7841 18.3333 79.8241 16.68C80.8641 15 82.3174 13.6933 84.1841 12.76C86.0507 11.8 88.2374 11.32 90.7441 11.32C92.2107 11.32 93.5707 11.4933 94.8241 11.84C96.0774 12.16 97.1841 12.5867 98.1441 13.12C99.1041 13.6533 99.8641 14.2267 100.424 14.84C100.984 15.4267 101.317 16 101.424 16.56L99.8241 16.8V11.76H106.144V33H99.7041V27.08L100.984 27.64C100.931 28.28 100.611 28.9333 100.024 29.6C99.4641 30.2667 98.7174 30.8933 97.7841 31.48C96.8507 32.04 95.7707 32.4933 94.5441 32.84C93.3174 33.1867 92.0241 33.36 90.6641 33.36ZM92.2641 27.96C93.8374 27.96 95.1841 27.7333 96.3041 27.28C97.4507 26.8 98.3307 26.1467 98.9441 25.32C99.5841 24.4667 99.9041 23.4933 99.9041 22.4C99.9041 21.28 99.5841 20.3067 98.9441 19.48C98.3307 18.6533 97.4507 18 96.3041 17.52C95.1841 17.0133 93.8374 16.76 92.2641 16.76C90.7441 16.76 89.4107 17.0133 88.2641 17.52C87.1174 18 86.2241 18.6533 85.5841 19.48C84.9441 20.3067 84.6241 21.28 84.6241 22.4C84.6241 23.4933 84.9441 24.4667 85.5841 25.32C86.2241 26.1467 87.1174 26.8 88.2641 27.28C89.4107 27.7333 90.7441 27.96 92.2641 27.96ZM122.415 33V11.76H128.495L128.775 19.72L126.775 19.76C127.201 18.1867 127.921 16.7733 128.935 15.52C129.948 14.24 131.148 13.2267 132.535 12.48C133.921 11.7067 135.375 11.32 136.895 11.32C137.881 11.32 138.841 11.4267 139.775 11.64C140.735 11.8533 141.521 12.1467 142.135 12.52L140.415 19.36C139.855 18.96 139.081 18.6533 138.095 18.44C137.135 18.2 136.188 18.08 135.255 18.08C134.215 18.08 133.281 18.24 132.455 18.56C131.655 18.88 130.975 19.3067 130.415 19.84C129.881 20.3733 129.481 20.96 129.215 21.6C128.948 22.24 128.815 22.8933 128.815 23.56V33H122.415ZM162.567 33.44C160.114 33.44 157.994 32.9733 156.207 32.04C154.42 31.1067 153.034 29.8 152.047 28.12C151.087 26.44 150.607 24.5333 150.607 22.4C150.607 20.24 151.127 18.3333 152.167 16.68C153.207 15 154.66 13.6933 156.527 12.76C158.394 11.8 160.554 11.32 163.007 11.32C164.474 11.32 165.82 11.48 167.047 11.8C168.3 12.12 169.394 12.5467 170.327 13.08C171.26 13.5867 172.007 14.16 172.567 14.8C173.127 15.44 173.447 16.08 173.527 16.72L172.007 17.08V3.4H178.447V33H172.487L172.127 27.36L173.407 27.88C173.327 28.52 172.98 29.1733 172.367 29.84C171.78 30.5067 170.994 31.1067 170.007 31.64C169.02 32.1733 167.887 32.6133 166.607 32.96C165.354 33.28 164.007 33.44 162.567 33.44ZM164.567 27.88C166.114 27.88 167.46 27.6533 168.607 27.2C169.754 26.72 170.634 26.0667 171.247 25.24C171.86 24.4133 172.167 23.4667 172.167 22.4C172.167 21.3067 171.86 20.36 171.247 19.56C170.634 18.7333 169.754 18.0933 168.607 17.64C167.46 17.16 166.114 16.92 164.567 16.92C163.047 16.92 161.714 17.16 160.567 17.64C159.447 18.0933 158.567 18.7333 157.927 19.56C157.287 20.36 156.967 21.3067 156.967 22.4C156.967 23.4667 157.287 24.4133 157.927 25.24C158.567 26.0667 159.447 26.72 160.567 27.2C161.714 27.6533 163.047 27.88 164.567 27.88ZM194.062 33V11.76H200.462V33H194.062ZM197.222 7.16C196.022 7.16 195.089 6.88 194.422 6.32C193.755 5.73333 193.422 4.90667 193.422 3.84C193.422 2.88 193.755 2.09333 194.422 1.48C195.115 0.866665 196.049 0.559998 197.222 0.559998C198.422 0.559998 199.355 0.853332 200.022 1.44C200.715 2 201.062 2.8 201.062 3.84C201.062 4.82667 200.715 5.62667 200.022 6.24C199.329 6.85333 198.395 7.16 197.222 7.16ZM218.815 33V12.4C218.815 10.56 219.215 8.96 220.015 7.6C220.815 6.24 221.935 5.18666 223.375 4.44C224.815 3.69333 226.495 3.32 228.415 3.32C230.015 3.32 231.361 3.50666 232.455 3.88C233.575 4.25333 234.455 4.62666 235.095 5L233.295 9.76C232.841 9.52 232.228 9.26667 231.455 9C230.708 8.70667 229.948 8.56 229.175 8.56C228.188 8.56 227.375 8.73333 226.735 9.08C226.095 9.42666 225.615 9.89333 225.295 10.48C225.001 11.04 224.855 11.68 224.855 12.4V33H221.855C221.268 33 220.721 33 220.215 33C219.708 33 219.241 33 218.815 33ZM214.135 18.04V12.76H233.615V18.04H214.135ZM249.153 42.2L255.753 30.84L255.313 33.96L242.433 11.76H250.033L256.073 23.36C256.607 24.3733 257.113 25.3867 257.593 26.4C258.1 27.4133 258.527 28.4267 258.873 29.44H257.193C257.567 28.56 257.993 27.5867 258.473 26.52C258.98 25.4267 259.487 24.3733 259.993 23.36L265.953 11.76H273.393L260.913 33.24L255.793 42.2H249.153Z" fill="#1DA1F2"/>
</svg>
