<svg width="305" height="70" viewBox="0 0 305 70" fill="none" xmlns="http://www.w3.org/2000/svg">
<path d="M16.88 50V22H32.84C35.2933 22 37.36 22.28 39.04 22.84C40.7467 23.4 42.0267 24.1867 42.88 25.2C43.7333 26.2133 44.16 27.44 44.16 28.88C44.16 30.4267 43.6933 31.76 42.76 32.88C41.8267 33.9733 40.4133 34.7333 38.52 35.16L38.72 34.44C39.92 34.7067 41.04 35.1333 42.08 35.72C43.1467 36.28 44 37.04 44.64 38C45.3067 38.96 45.64 40.1333 45.64 41.52C45.64 43.2267 45.28 44.6267 44.56 45.72C43.84 46.8133 42.8933 47.68 41.72 48.32C40.5467 48.9333 39.2667 49.3733 37.88 49.64C36.52 49.88 35.1867 50 33.88 50H16.88ZM23.28 44.32H34.04C34.9733 44.32 35.8 44.2133 36.52 44C37.2667 43.7867 37.8533 43.4533 38.28 43C38.7333 42.52 38.96 41.92 38.96 41.2C38.96 40.3733 38.68 39.7467 38.12 39.32C37.56 38.8667 36.88 38.56 36.08 38.4C35.28 38.2133 34.5333 38.12 33.84 38.12H23.28V44.32ZM23.28 33H32.92C33.8 33 34.5733 32.8933 35.24 32.68C35.9333 32.4667 36.4667 32.16 36.84 31.76C37.24 31.36 37.44 30.8533 37.44 30.24C37.44 29.3067 36.9733 28.6533 36.04 28.28C35.1333 27.88 34.0133 27.68 32.68 27.68H23.28V33ZM70.4269 50.4C67.5469 50.4 65.0002 49.9333 62.7869 49C60.5735 48.04 58.8402 46.7333 57.5869 45.08C56.3602 43.4 55.7469 41.4933 55.7469 39.36C55.7469 37.2 56.3602 35.2933 57.5869 33.64C58.8402 31.9867 60.5735 30.6933 62.7869 29.76C65.0002 28.8 67.5469 28.32 70.4269 28.32C73.3069 28.32 75.8402 28.8 78.0269 29.76C80.2135 30.6933 81.9202 31.9867 83.1469 33.64C84.4002 35.2933 85.0269 37.2 85.0269 39.36C85.0269 41.4933 84.4002 43.4 83.1469 45.08C81.9202 46.7333 80.2135 48.04 78.0269 49C75.8402 49.9333 73.3069 50.4 70.4269 50.4ZM70.4269 44.88C71.9202 44.88 73.2802 44.6533 74.5069 44.2C75.7602 43.72 76.7469 43.0667 77.4669 42.24C78.2135 41.4133 78.5735 40.4533 78.5469 39.36C78.5735 38.2667 78.2135 37.3067 77.4669 36.48C76.7469 35.6267 75.7602 34.9733 74.5069 34.52C73.2802 34.04 71.9202 33.8 70.4269 33.8C68.9069 33.8 67.5202 34.04 66.2669 34.52C65.0402 34.9733 64.0535 35.6133 63.3069 36.44C62.5869 37.2667 62.2269 38.24 62.2269 39.36C62.2269 40.4533 62.5869 41.4133 63.3069 42.24C64.0535 43.0667 65.0402 43.72 66.2669 44.2C67.5202 44.6533 68.9069 44.88 70.4269 44.88ZM107.234 50.36C104.674 50.36 102.461 49.8933 100.594 48.96C98.7544 48.0267 97.3277 46.7333 96.3144 45.08C95.3277 43.4267 94.8344 41.5333 94.8344 39.4C94.8344 37.24 95.3544 35.3333 96.3944 33.68C97.4344 32 98.8877 30.6933 100.754 29.76C102.621 28.8 104.808 28.32 107.314 28.32C108.781 28.32 110.141 28.4933 111.394 28.84C112.648 29.16 113.754 29.5867 114.714 30.12C115.674 30.6533 116.434 31.2267 116.994 31.84C117.554 32.4267 117.888 33 117.994 33.56L116.394 33.8V28.76H122.714V50H116.274V44.08L117.554 44.64C117.501 45.28 117.181 45.9333 116.594 46.6C116.034 47.2667 115.288 47.8933 114.354 48.48C113.421 49.04 112.341 49.4933 111.114 49.84C109.888 50.1867 108.594 50.36 107.234 50.36ZM108.834 44.96C110.408 44.96 111.754 44.7333 112.874 44.28C114.021 43.8 114.901 43.1467 115.514 42.32C116.154 41.4667 116.474 40.4933 116.474 39.4C116.474 38.28 116.154 37.3067 115.514 36.48C114.901 35.6533 114.021 35 112.874 34.52C111.754 34.0133 110.408 33.76 108.834 33.76C107.314 33.76 105.981 34.0133 104.834 34.52C103.688 35 102.794 35.6533 102.154 36.48C101.514 37.3067 101.194 38.28 101.194 39.4C101.194 40.4933 101.514 41.4667 102.154 42.32C102.794 43.1467 103.688 43.8 104.834 44.28C105.981 44.7333 107.314 44.96 108.834 44.96ZM138.985 50V28.76H145.065L145.345 36.72L143.345 36.76C143.772 35.1867 144.492 33.7733 145.505 32.52C146.518 31.24 147.718 30.2267 149.105 29.48C150.492 28.7067 151.945 28.32 153.465 28.32C154.452 28.32 155.412 28.4267 156.345 28.64C157.305 28.8533 158.092 29.1467 158.705 29.52L156.985 36.36C156.425 35.96 155.652 35.6533 154.665 35.44C153.705 35.2 152.758 35.08 151.825 35.08C150.785 35.08 149.852 35.24 149.025 35.56C148.225 35.88 147.545 36.3067 146.985 36.84C146.452 37.3733 146.052 37.96 145.785 38.6C145.518 39.24 145.385 39.8933 145.385 40.56V50H138.985ZM179.137 50.44C176.684 50.44 174.564 49.9733 172.777 49.04C170.991 48.1067 169.604 46.8 168.617 45.12C167.657 43.44 167.177 41.5333 167.177 39.4C167.177 37.24 167.697 35.3333 168.737 33.68C169.777 32 171.231 30.6933 173.097 29.76C174.964 28.8 177.124 28.32 179.577 28.32C181.044 28.32 182.391 28.48 183.617 28.8C184.871 29.12 185.964 29.5467 186.897 30.08C187.831 30.5867 188.577 31.16 189.137 31.8C189.697 32.44 190.017 33.08 190.097 33.72L188.577 34.08V20.4H195.017V50H189.057L188.697 44.36L189.977 44.88C189.897 45.52 189.551 46.1733 188.937 46.84C188.351 47.5067 187.564 48.1067 186.577 48.64C185.591 49.1733 184.457 49.6133 183.177 49.96C181.924 50.28 180.577 50.44 179.137 50.44ZM181.137 44.88C182.684 44.88 184.031 44.6533 185.177 44.2C186.324 43.72 187.204 43.0667 187.817 42.24C188.431 41.4133 188.737 40.4667 188.737 39.4C188.737 38.3067 188.431 37.36 187.817 36.56C187.204 35.7333 186.324 35.0933 185.177 34.64C184.031 34.16 182.684 33.92 181.137 33.92C179.617 33.92 178.284 34.16 177.137 34.64C176.017 35.0933 175.137 35.7333 174.497 36.56C173.857 37.36 173.537 38.3067 173.537 39.4C173.537 40.4667 173.857 41.4133 174.497 42.24C175.137 43.0667 176.017 43.72 177.137 44.2C178.284 44.6533 179.617 44.88 181.137 44.88ZM210.632 50V28.76H217.032V50H210.632ZM213.792 24.16C212.592 24.16 211.659 23.88 210.992 23.32C210.326 22.7333 209.992 21.9067 209.992 20.84C209.992 19.88 210.326 19.0933 210.992 18.48C211.686 17.8667 212.619 17.56 213.792 17.56C214.992 17.56 215.926 17.8533 216.592 18.44C217.286 19 217.632 19.8 217.632 20.84C217.632 21.8267 217.286 22.6267 216.592 23.24C215.899 23.8533 214.966 24.16 213.792 24.16ZM235.385 50V29.4C235.385 27.56 235.785 25.96 236.585 24.6C237.385 23.24 238.505 22.1867 239.945 21.44C241.385 20.6933 243.065 20.32 244.985 20.32C246.585 20.32 247.932 20.5067 249.025 20.88C250.145 21.2533 251.025 21.6267 251.665 22L249.865 26.76C249.412 26.52 248.798 26.2667 248.025 26C247.278 25.7067 246.518 25.56 245.745 25.56C244.758 25.56 243.945 25.7333 243.305 26.08C242.665 26.4267 242.185 26.8933 241.865 27.48C241.572 28.04 241.425 28.68 241.425 29.4V50H238.425C237.838 50 237.292 50 236.785 50C236.278 50 235.812 50 235.385 50ZM230.705 35.04V29.76H250.185V35.04H230.705ZM265.724 59.2L272.324 47.84L271.884 50.96L259.004 28.76H266.604L272.644 40.36C273.177 41.3733 273.684 42.3867 274.164 43.4C274.67 44.4133 275.097 45.4267 275.444 46.44H273.764C274.137 45.56 274.564 44.5867 275.044 43.52C275.55 42.4267 276.057 41.3733 276.564 40.36L282.524 28.76H289.964L277.484 50.24L272.364 59.2H265.724Z" fill="#2B65F6"/>
</svg>
