<svg width="175" height="41" viewBox="0 0 175 41" fill="none" xmlns="http://www.w3.org/2000/svg">
<path d="M0.32 32V4H14C17.52 4 20.16 4.66666 21.92 6C23.7067 7.33333 24.6 9.09333 24.6 11.28C24.6 12.7467 24.24 14.0267 23.52 15.12C22.8 16.1867 21.8133 17.0133 20.56 17.6C19.3067 18.1867 17.8667 18.48 16.24 18.48L17 16.84C18.76 16.84 20.32 17.1333 21.68 17.72C23.04 18.28 24.0933 19.12 24.84 20.24C25.6133 21.36 26 22.7333 26 24.36C26 26.76 25.0533 28.64 23.16 30C21.2667 31.3333 18.48 32 14.8 32H0.32ZM6.76 27.12H14.32C16 27.12 17.2667 26.8533 18.12 26.32C19 25.76 19.44 24.88 19.44 23.68C19.44 22.5067 19 21.64 18.12 21.08C17.2667 20.4933 16 20.2 14.32 20.2H6.28V15.48H13.2C14.7733 15.48 15.9733 15.2133 16.8 14.68C17.6533 14.12 18.08 13.28 18.08 12.16C18.08 11.0667 17.6533 10.2533 16.8 9.72C15.9733 9.16 14.7733 8.88 13.2 8.88H6.76V27.12ZM40.7059 32.32C38.4126 32.32 36.3726 31.84 34.5859 30.88C32.8259 29.92 31.4259 28.6133 30.3859 26.96C29.3726 25.28 28.8659 23.3733 28.8659 21.24C28.8659 19.08 29.3726 17.1733 30.3859 15.52C31.4259 13.84 32.8259 12.5333 34.5859 11.6C36.3726 10.64 38.4126 10.16 40.7059 10.16C42.9726 10.16 44.9993 10.64 46.7859 11.6C48.5726 12.5333 49.9726 13.8267 50.9859 15.48C51.9993 17.1333 52.5059 19.0533 52.5059 21.24C52.5059 23.3733 51.9993 25.28 50.9859 26.96C49.9726 28.6133 48.5726 29.92 46.7859 30.88C44.9993 31.84 42.9726 32.32 40.7059 32.32ZM40.7059 27.2C41.7459 27.2 42.6793 26.96 43.5059 26.48C44.3326 26 44.9859 25.32 45.4659 24.44C45.9459 23.5333 46.1859 22.4667 46.1859 21.24C46.1859 19.9867 45.9459 18.92 45.4659 18.04C44.9859 17.16 44.3326 16.48 43.5059 16C42.6793 15.52 41.7459 15.28 40.7059 15.28C39.6659 15.28 38.7326 15.52 37.9059 16C37.0793 16.48 36.4126 17.16 35.9059 18.04C35.4259 18.92 35.1859 19.9867 35.1859 21.24C35.1859 22.4667 35.4259 23.5333 35.9059 24.44C36.4126 25.32 37.0793 26 37.9059 26.48C38.7326 26.96 39.6659 27.2 40.7059 27.2ZM69.5253 32V27.8L69.1253 26.88V19.36C69.1253 18.0267 68.712 16.9867 67.8853 16.24C67.0853 15.4933 65.8453 15.12 64.1653 15.12C63.0186 15.12 61.8853 15.3067 60.7653 15.68C59.672 16.0267 58.7386 16.5067 57.9653 17.12L55.7253 12.76C56.8986 11.9333 58.312 11.2933 59.9653 10.84C61.6186 10.3867 63.2986 10.16 65.0053 10.16C68.2853 10.16 70.832 10.9333 72.6453 12.48C74.4586 14.0267 75.3653 16.44 75.3653 19.72V32H69.5253ZM62.9653 32.32C61.2853 32.32 59.8453 32.04 58.6453 31.48C57.4453 30.8933 56.5253 30.1067 55.8853 29.12C55.2453 28.1333 54.9253 27.0267 54.9253 25.8C54.9253 24.52 55.232 23.4 55.8453 22.44C56.4853 21.48 57.4853 20.7333 58.8453 20.2C60.2053 19.64 61.9786 19.36 64.1653 19.36H69.8853V23H64.8453C63.3786 23 62.3653 23.24 61.8053 23.72C61.272 24.2 61.0053 24.8 61.0053 25.52C61.0053 26.32 61.312 26.96 61.9253 27.44C62.5653 27.8933 63.432 28.12 64.5253 28.12C65.5653 28.12 66.4986 27.88 67.3253 27.4C68.152 26.8933 68.752 26.16 69.1253 25.2L70.0853 28.08C69.632 29.4667 68.8053 30.52 67.6053 31.24C66.4053 31.96 64.8586 32.32 62.9653 32.32ZM81.0128 32V10.48H86.9728V16.56L86.1328 14.8C86.7728 13.28 87.7995 12.1333 89.2128 11.36C90.6261 10.56 92.3461 10.16 94.3728 10.16V15.92C94.1061 15.8933 93.8661 15.88 93.6528 15.88C93.4395 15.8533 93.2128 15.84 92.9728 15.84C91.2661 15.84 89.8795 16.3333 88.8128 17.32C87.7728 18.28 87.2528 19.7867 87.2528 21.84V32H81.0128ZM107.167 32.32C105.14 32.32 103.314 31.8667 101.687 30.96C100.06 30.0267 98.7669 28.7333 97.8069 27.08C96.8735 25.4267 96.4069 23.48 96.4069 21.24C96.4069 18.9733 96.8735 17.0133 97.8069 15.36C98.7669 13.7067 100.06 12.4267 101.687 11.52C103.314 10.6133 105.14 10.16 107.167 10.16C108.98 10.16 110.567 10.56 111.927 11.36C113.287 12.16 114.34 13.3733 115.087 15C115.834 16.6267 116.207 18.7067 116.207 21.24C116.207 23.7467 115.847 25.8267 115.127 27.48C114.407 29.1067 113.367 30.32 112.007 31.12C110.674 31.92 109.06 32.32 107.167 32.32ZM108.247 27.2C109.26 27.2 110.18 26.96 111.007 26.48C111.834 26 112.487 25.32 112.967 24.44C113.474 23.5333 113.727 22.4667 113.727 21.24C113.727 19.9867 113.474 18.92 112.967 18.04C112.487 17.16 111.834 16.48 111.007 16C110.18 15.52 109.26 15.28 108.247 15.28C107.207 15.28 106.274 15.52 105.447 16C104.62 16.48 103.954 17.16 103.447 18.04C102.967 18.92 102.727 19.9867 102.727 21.24C102.727 22.4667 102.967 23.5333 103.447 24.44C103.954 25.32 104.62 26 105.447 26.48C106.274 26.96 107.207 27.2 108.247 27.2ZM113.887 32V27.6L114.007 21.2L113.607 14.84V2.32H119.847V32H113.887ZM125.622 32V10.48H131.862V32H125.622ZM128.742 7.48C127.596 7.48 126.662 7.14667 125.942 6.48C125.222 5.81333 124.862 4.98666 124.862 4C124.862 3.01333 125.222 2.18667 125.942 1.52C126.662 0.853331 127.596 0.519998 128.742 0.519998C129.889 0.519998 130.822 0.839998 131.542 1.48C132.262 2.09333 132.622 2.89333 132.622 3.88C132.622 4.92 132.262 5.78667 131.542 6.48C130.849 7.14667 129.916 7.48 128.742 7.48ZM138.413 32V10C138.413 7.57333 139.133 5.64 140.573 4.2C142.013 2.73333 144.067 2 146.733 2C147.64 2 148.507 2.09333 149.333 2.28C150.187 2.46666 150.907 2.76 151.493 3.16L149.853 7.68C149.507 7.44 149.12 7.25333 148.693 7.12C148.267 6.98667 147.813 6.92 147.333 6.92C146.427 6.92 145.72 7.18667 145.213 7.72C144.733 8.22667 144.493 9 144.493 10.04V12.04L144.653 14.72V32H138.413ZM135.093 15.76V10.96H150.013V15.76H135.093ZM156.233 40.08C155.113 40.08 154.006 39.9067 152.913 39.56C151.819 39.2133 150.926 38.7333 150.233 38.12L152.513 33.68C152.993 34.1067 153.539 34.44 154.153 34.68C154.793 34.92 155.419 35.04 156.033 35.04C156.913 35.04 157.606 34.8267 158.113 34.4C158.646 34 159.126 33.32 159.553 32.36L160.673 29.72L161.153 29.04L168.873 10.48H174.873L165.153 33.32C164.459 35.0533 163.659 36.4133 162.753 37.4C161.873 38.3867 160.886 39.08 159.793 39.48C158.726 39.88 157.539 40.08 156.233 40.08ZM159.913 32.84L150.313 10.48H156.753L164.193 28.48L159.913 32.84Z" fill="white"/>
</svg>
