<svg width="84" height="14" viewBox="0 0 84 14" fill="none" xmlns="http://www.w3.org/2000/svg">
<rect width="84" height="14" rx="7" fill="#FEF3F3"/>
<g clip-path="url(#clip0_651_1503)">
<path d="M7.99992 11.1666C5.69873 11.1666 3.83325 9.30109 3.83325 6.99992C3.83325 4.69873 5.69873 2.83325 7.99992 2.83325C10.3011 2.83325 12.1666 4.69873 12.1666 6.99992C12.1666 9.30109 10.3011 11.1666 7.99992 11.1666ZM7.58325 8.24992V9.08325H8.41659V8.24992H7.58325ZM7.58325 4.91659V7.41659H8.41659V4.91659H7.58325Z" fill="#FF0248"/>
</g>
<path d="M18.888 10V5.28H17.032V4.4H21.784V5.28H19.928V10H18.888ZM24.039 10.056C23.5643 10.056 23.1483 9.96267 22.791 9.776C22.439 9.584 22.1643 9.32267 21.967 8.992C21.775 8.66133 21.679 8.28533 21.679 7.864C21.679 7.43733 21.7723 7.06133 21.959 6.736C22.151 6.40533 22.4123 6.14667 22.743 5.96C23.079 5.77333 23.4603 5.68 23.887 5.68C24.303 5.68 24.6737 5.77067 24.999 5.952C25.3243 6.13333 25.5803 6.38933 25.767 6.72C25.9537 7.05067 26.047 7.44 26.047 7.888C26.047 7.93067 26.0443 7.97867 26.039 8.032C26.039 8.08533 26.0363 8.136 26.031 8.184H22.471V7.52H25.503L25.111 7.728C25.1163 7.48267 25.0657 7.26667 24.959 7.08C24.8523 6.89333 24.7057 6.74667 24.519 6.64C24.3377 6.53333 24.127 6.48 23.887 6.48C23.6417 6.48 23.4257 6.53333 23.239 6.64C23.0577 6.74667 22.9137 6.896 22.807 7.088C22.7057 7.27467 22.655 7.496 22.655 7.752V7.912C22.655 8.168 22.7137 8.39467 22.831 8.592C22.9483 8.78933 23.1137 8.94133 23.327 9.048C23.5403 9.15467 23.7857 9.208 24.063 9.208C24.303 9.208 24.519 9.17067 24.711 9.096C24.903 9.02133 25.0737 8.904 25.223 8.744L25.759 9.36C25.567 9.584 25.3243 9.75733 25.031 9.88C24.743 9.99733 24.4123 10.056 24.039 10.056ZM29.4316 5.68C29.7729 5.68 30.0769 5.74667 30.3436 5.88C30.6156 6.01333 30.8289 6.21867 30.9836 6.496C31.1382 6.768 31.2156 7.12 31.2156 7.552V10H30.2156V7.68C30.2156 7.30133 30.1249 7.01867 29.9436 6.832C29.7676 6.64533 29.5196 6.552 29.1996 6.552C28.9649 6.552 28.7569 6.6 28.5756 6.696C28.3942 6.792 28.2529 6.936 28.1516 7.128C28.0556 7.31467 28.0076 7.552 28.0076 7.84V10H27.0076V5.728H27.9596V6.88L27.7916 6.528C27.9409 6.256 28.1569 6.048 28.4396 5.904C28.7276 5.75467 29.0582 5.68 29.4316 5.68ZM34.4279 11.608C34.0333 11.608 33.6466 11.5547 33.2679 11.448C32.8946 11.3467 32.5879 11.1973 32.3479 11L32.7959 10.248C32.9826 10.4027 33.2173 10.5253 33.4999 10.616C33.7879 10.712 34.0786 10.76 34.3719 10.76C34.8413 10.76 35.1853 10.6507 35.4039 10.432C35.6226 10.2187 35.7319 9.896 35.7319 9.464V8.704L35.8119 7.736L35.7799 6.768V5.728H36.7319V9.352C36.7319 10.1253 36.5346 10.6933 36.1399 11.056C35.7453 11.424 35.1746 11.608 34.4279 11.608ZM34.2999 9.808C33.8946 9.808 33.5266 9.72267 33.1959 9.552C32.8706 9.376 32.6119 9.13333 32.4199 8.824C32.2333 8.51467 32.1399 8.152 32.1399 7.736C32.1399 7.32533 32.2333 6.96533 32.4199 6.656C32.6119 6.34667 32.8706 6.10667 33.1959 5.936C33.5266 5.76533 33.8946 5.68 34.2999 5.68C34.6626 5.68 34.9879 5.752 35.2759 5.896C35.5639 6.04 35.7933 6.264 35.9639 6.568C36.1399 6.872 36.2279 7.26133 36.2279 7.736C36.2279 8.21067 36.1399 8.60267 35.9639 8.912C35.7933 9.216 35.5639 9.44267 35.2759 9.592C34.9879 9.736 34.6626 9.808 34.2999 9.808ZM34.4519 8.96C34.7026 8.96 34.9266 8.90933 35.1239 8.808C35.3213 8.70133 35.4733 8.55733 35.5799 8.376C35.6919 8.18933 35.7479 7.976 35.7479 7.736C35.7479 7.496 35.6919 7.28533 35.5799 7.104C35.4733 6.91733 35.3213 6.776 35.1239 6.68C34.9266 6.57867 34.7026 6.528 34.4519 6.528C34.2013 6.528 33.9746 6.57867 33.7719 6.68C33.5746 6.776 33.4199 6.91733 33.3079 7.104C33.2013 7.28533 33.1479 7.496 33.1479 7.736C33.1479 7.976 33.2013 8.18933 33.3079 8.376C33.4199 8.55733 33.5746 8.70133 33.7719 8.808C33.9746 8.90933 34.2013 8.96 34.4519 8.96ZM39.9826 11.608C39.588 11.608 39.2013 11.5547 38.8226 11.448C38.4493 11.3467 38.1426 11.1973 37.9026 11L38.3506 10.248C38.5373 10.4027 38.772 10.5253 39.0546 10.616C39.3426 10.712 39.6333 10.76 39.9266 10.76C40.396 10.76 40.74 10.6507 40.9586 10.432C41.1773 10.2187 41.2866 9.896 41.2866 9.464V8.704L41.3666 7.736L41.3346 6.768V5.728H42.2866V9.352C42.2866 10.1253 42.0893 10.6933 41.6946 11.056C41.3 11.424 40.7293 11.608 39.9826 11.608ZM39.8546 9.808C39.4493 9.808 39.0813 9.72267 38.7506 9.552C38.4253 9.376 38.1666 9.13333 37.9746 8.824C37.788 8.51467 37.6946 8.152 37.6946 7.736C37.6946 7.32533 37.788 6.96533 37.9746 6.656C38.1666 6.34667 38.4253 6.10667 38.7506 5.936C39.0813 5.76533 39.4493 5.68 39.8546 5.68C40.2173 5.68 40.5426 5.752 40.8306 5.896C41.1186 6.04 41.348 6.264 41.5186 6.568C41.6946 6.872 41.7826 7.26133 41.7826 7.736C41.7826 8.21067 41.6946 8.60267 41.5186 8.912C41.348 9.216 41.1186 9.44267 40.8306 9.592C40.5426 9.736 40.2173 9.808 39.8546 9.808ZM40.0066 8.96C40.2573 8.96 40.4813 8.90933 40.6786 8.808C40.876 8.70133 41.028 8.55733 41.1346 8.376C41.2466 8.18933 41.3026 7.976 41.3026 7.736C41.3026 7.496 41.2466 7.28533 41.1346 7.104C41.028 6.91733 40.876 6.776 40.6786 6.68C40.4813 6.57867 40.2573 6.528 40.0066 6.528C39.756 6.528 39.5293 6.57867 39.3266 6.68C39.1293 6.776 38.9746 6.91733 38.8626 7.104C38.756 7.28533 38.7026 7.496 38.7026 7.736C38.7026 7.976 38.756 8.18933 38.8626 8.376C38.9746 8.55733 39.1293 8.70133 39.3266 8.808C39.5293 8.90933 39.756 8.96 40.0066 8.96ZM46.2333 10V9.136L46.1773 8.952V7.44C46.1773 7.14667 46.0893 6.92 45.9133 6.76C45.7373 6.59467 45.4706 6.512 45.1133 6.512C44.8733 6.512 44.636 6.54933 44.4013 6.624C44.172 6.69867 43.9773 6.80267 43.8173 6.936L43.4253 6.208C43.6546 6.032 43.9266 5.90133 44.2413 5.816C44.5613 5.72533 44.892 5.68 45.2333 5.68C45.852 5.68 46.3293 5.82933 46.6653 6.128C47.0066 6.42133 47.1773 6.87733 47.1773 7.496V10H46.2333ZM44.8893 10.056C44.5693 10.056 44.2893 10.0027 44.0493 9.896C43.8093 9.784 43.6226 9.632 43.4893 9.44C43.3613 9.24267 43.2973 9.02133 43.2973 8.776C43.2973 8.536 43.3533 8.32 43.4653 8.128C43.5826 7.936 43.772 7.784 44.0333 7.672C44.2946 7.56 44.6413 7.504 45.0733 7.504H46.3133V8.168H45.1453C44.804 8.168 44.5746 8.224 44.4573 8.336C44.34 8.44267 44.2813 8.576 44.2813 8.736C44.2813 8.91733 44.3533 9.06133 44.4973 9.168C44.6413 9.27467 44.8413 9.328 45.0973 9.328C45.3426 9.328 45.5613 9.272 45.7533 9.16C45.9506 9.048 46.092 8.88267 46.1773 8.664L46.3453 9.264C46.2493 9.51467 46.076 9.70933 45.8253 9.848C45.58 9.98667 45.268 10.056 44.8893 10.056ZM50.0687 10.056C49.5994 10.056 49.2367 9.936 48.9807 9.696C48.7247 9.45067 48.5967 9.09067 48.5967 8.616V4.784H49.5967V8.592C49.5967 8.79467 49.6474 8.952 49.7487 9.064C49.8554 9.176 50.002 9.232 50.1887 9.232C50.4127 9.232 50.5994 9.17333 50.7487 9.056L51.0287 9.768C50.9114 9.864 50.7674 9.936 50.5967 9.984C50.426 10.032 50.25 10.056 50.0687 10.056ZM47.8927 6.56V5.76H50.7407V6.56H47.8927ZM55.4783 10L53.6223 4.4H54.7023L56.3583 9.464H55.8223L57.5423 4.4H58.5023L60.1743 9.464H59.6543L61.3503 4.4H62.3423L60.4863 10H59.3823L57.8543 5.432H58.1423L56.5903 10H55.4783ZM65.4052 10V9.136L65.3492 8.952V7.44C65.3492 7.14667 65.2612 6.92 65.0852 6.76C64.9092 6.59467 64.6425 6.512 64.2852 6.512C64.0452 6.512 63.8079 6.54933 63.5732 6.624C63.3439 6.69867 63.1492 6.80267 62.9892 6.936L62.5972 6.208C62.8265 6.032 63.0985 5.90133 63.4132 5.816C63.7332 5.72533 64.0639 5.68 64.4052 5.68C65.0239 5.68 65.5012 5.82933 65.8372 6.128C66.1785 6.42133 66.3492 6.87733 66.3492 7.496V10H65.4052ZM64.0612 10.056C63.7412 10.056 63.4612 10.0027 63.2212 9.896C62.9812 9.784 62.7945 9.632 62.6612 9.44C62.5332 9.24267 62.4692 9.02133 62.4692 8.776C62.4692 8.536 62.5252 8.32 62.6372 8.128C62.7545 7.936 62.9439 7.784 63.2052 7.672C63.4665 7.56 63.8132 7.504 64.2452 7.504H65.4852V8.168H64.3172C63.9759 8.168 63.7465 8.224 63.6292 8.336C63.5119 8.44267 63.4532 8.576 63.4532 8.736C63.4532 8.91733 63.5252 9.06133 63.6692 9.168C63.8132 9.27467 64.0132 9.328 64.2692 9.328C64.5145 9.328 64.7332 9.272 64.9252 9.16C65.1225 9.048 65.2639 8.88267 65.3492 8.664L65.5172 9.264C65.4212 9.51467 65.2479 9.70933 64.9972 9.848C64.7519 9.98667 64.4399 10.056 64.0612 10.056ZM68.4486 9.048L68.4726 7.792L70.7046 5.728H71.9046L70.0086 7.632L69.4806 8.072L68.4486 9.048ZM67.6326 10V4.064H68.6326V10H67.6326ZM70.8566 10L69.2966 8.072L69.9286 7.272L72.0726 10H70.8566ZM74.3265 10.056C73.8572 10.056 73.4945 9.936 73.2385 9.696C72.9825 9.45067 72.8545 9.09067 72.8545 8.616V4.784H73.8545V8.592C73.8545 8.79467 73.9052 8.952 74.0065 9.064C74.1132 9.176 74.2598 9.232 74.4465 9.232C74.6705 9.232 74.8572 9.17333 75.0065 9.056L75.2865 9.768C75.1692 9.864 75.0252 9.936 74.8545 9.984C74.6838 10.032 74.5078 10.056 74.3265 10.056ZM72.1505 6.56V5.76H74.9985V6.56H72.1505ZM77.9171 10.056C77.5545 10.056 77.2345 9.98933 76.9571 9.856C76.6798 9.71733 76.4638 9.50933 76.3091 9.232C76.1545 8.94933 76.0771 8.59467 76.0771 8.168V5.728H77.0771V8.032C77.0771 8.416 77.1625 8.704 77.3331 8.896C77.5091 9.08267 77.7571 9.176 78.0771 9.176C78.3118 9.176 78.5145 9.128 78.6851 9.032C78.8611 8.936 78.9971 8.792 79.0931 8.6C79.1945 8.408 79.2451 8.17067 79.2451 7.888V5.728H80.2451V10H79.2931V8.848L79.4611 9.2C79.3171 9.47733 79.1065 9.69067 78.8291 9.84C78.5518 9.984 78.2478 10.056 77.9171 10.056Z" fill="#FF0248"/>
<defs>
<clipPath id="clip0_651_1503">
<rect width="10" height="10" fill="white" transform="translate(3 2)"/>
</clipPath>
</defs>
</svg>
