<svg width="19" height="19" viewBox="0 0 19 19" fill="none" xmlns="http://www.w3.org/2000/svg">
<path fill-rule="evenodd" clip-rule="evenodd" d="M8.58713 17.3643C4.64463 16.9115 1.58325 13.5635 1.58325 9.49992C1.58325 5.12754 5.12754 1.58325 9.49992 1.58325C13.8723 1.58325 17.4166 5.12754 17.4166 9.49992C17.4166 13.5825 14.8175 13.2469 12.5985 12.9595C11.3176 12.794 10.1641 12.6452 9.70733 13.3696C9.39463 13.8652 9.73267 14.4827 10.1467 14.8967C10.2697 15.0197 10.3673 15.1657 10.4338 15.3264C10.5004 15.4871 10.5346 15.6593 10.5346 15.8333C10.5346 16.0072 10.5004 16.1794 10.4338 16.3401C10.3673 16.5008 10.2697 16.6468 10.1467 16.7698C9.73267 17.1838 9.169 17.4316 8.58713 17.3643ZM8.77554 5.54159C8.77554 5.85653 8.65043 6.15858 8.42773 6.38127C8.20503 6.60397 7.90299 6.72909 7.58804 6.72909C7.2731 6.72909 6.97105 6.60397 6.74835 6.38127C6.52565 6.15858 6.40054 5.85653 6.40054 5.54159C6.40054 5.22664 6.52565 4.9246 6.74835 4.7019C6.97105 4.4792 7.2731 4.35409 7.58804 4.35409C7.90299 4.35409 8.20503 4.4792 8.42773 4.7019C8.65043 4.9246 8.77554 5.22664 8.77554 5.54159ZM5.14575 10.2916C5.4607 10.2916 5.76274 10.1665 5.98544 9.94377C6.20814 9.72108 6.33325 9.41903 6.33325 9.10409C6.33325 8.78914 6.20814 8.4871 5.98544 8.2644C5.76274 8.0417 5.4607 7.91659 5.14575 7.91659C4.83081 7.91659 4.52876 8.0417 4.30606 8.2644C4.08336 8.4871 3.95825 8.78914 3.95825 9.10409C3.95825 9.41903 4.08336 9.72108 4.30606 9.94377C4.52876 10.1665 4.83081 10.2916 5.14575 10.2916ZM13.8541 10.2916C14.169 10.2916 14.4711 10.1665 14.6938 9.94377C14.9165 9.72108 15.0416 9.41903 15.0416 9.10409C15.0416 8.78914 14.9165 8.4871 14.6938 8.2644C14.4711 8.0417 14.169 7.91659 13.8541 7.91659C13.5391 7.91659 13.2371 8.0417 13.0144 8.2644C12.7917 8.4871 12.6666 8.78914 12.6666 9.10409C12.6666 9.41903 12.7917 9.72108 13.0144 9.94377C13.2371 10.1665 13.5391 10.2916 13.8541 10.2916ZM11.4791 6.72909C11.635 6.72909 11.7894 6.69837 11.9335 6.63869C12.0776 6.57902 12.2085 6.49154 12.3188 6.38127C12.429 6.27101 12.5165 6.1401 12.5762 5.99602C12.6359 5.85195 12.6666 5.69753 12.6666 5.54159C12.6666 5.38564 12.6359 5.23122 12.5762 5.08715C12.5165 4.94307 12.429 4.81217 12.3188 4.7019C12.2085 4.59163 12.0776 4.50416 11.9335 4.44448C11.7894 4.3848 11.635 4.35409 11.4791 4.35409C11.1641 4.35409 10.8621 4.4792 10.6394 4.7019C10.4167 4.9246 10.2916 5.22664 10.2916 5.54159C10.2916 5.85653 10.4167 6.15858 10.6394 6.38127C10.8621 6.60397 11.1641 6.72909 11.4791 6.72909Z" fill="#1DA1F2"/>
</svg>
