<svg width="15" height="15" viewBox="0 0 15 15" fill="none" xmlns="http://www.w3.org/2000/svg">
<path d="M4.375 2.5V12.5H10.625V2.5H4.375ZM3.75 1.25H11.25C11.5952 1.25 11.875 1.52982 11.875 1.875V13.125C11.875 13.4702 11.5952 13.75 11.25 13.75H3.75C3.40482 13.75 3.125 13.4702 3.125 13.125V1.875C3.125 1.52982 3.40482 1.25 3.75 1.25ZM7.5 10.625C7.84519 10.625 8.125 10.9048 8.125 11.25C8.125 11.5952 7.84519 11.875 7.5 11.875C7.15481 11.875 6.875 11.5952 6.875 11.25C6.875 10.9048 7.15481 10.625 7.5 10.625Z" fill="#1DA1F2"/>
</svg>
