<svg width="24" height="25" viewBox="0 0 24 25" fill="none" xmlns="http://www.w3.org/2000/svg">
<path d="M12 7.5C12.5523 7.5 13 7.05228 13 6.5C13 5.94772 12.5523 5.5 12 5.5C11.4477 5.5 11 5.94772 11 6.5C11 7.05228 11.4477 7.5 12 7.5Z" fill="black"/>
<path d="M6 17.5H18V19.5H6V17.5ZM10 12.33L12.792 15.124L16.724 11.189L18 12.5V8.5H14L15.31 9.775L12.791 12.294L10 9.5L6 13.5L7.414 14.914L10 12.33Z" fill="black"/>
<path d="M19 3.49999H15.702C15.6038 3.35213 15.497 3.21022 15.382 3.07499L15.372 3.06299C14.6373 2.20724 13.6036 1.66427 12.482 1.54499C12.1635 1.48435 11.8365 1.48435 11.518 1.54499C10.3964 1.66427 9.36273 2.20724 8.628 3.06299L8.618 3.07499C8.50307 3.20989 8.39622 3.35147 8.298 3.49899L5 3.49999C4.20459 3.50078 3.44199 3.81711 2.87956 4.37955C2.31712 4.94198 2.00079 5.70458 2 6.49999V20.5C2.00079 21.2954 2.31712 22.058 2.87956 22.6204C3.44199 23.1829 4.20459 23.4992 5 23.5H19C19.7954 23.4992 20.558 23.1829 21.1204 22.6204C21.6829 22.058 21.9992 21.2954 22 20.5V6.49999C21.9992 5.70458 21.6829 4.94198 21.1204 4.37955C20.558 3.81711 19.7954 3.50078 19 3.49999ZM20 20.5C20 20.7652 19.8946 21.0196 19.7071 21.2071C19.5196 21.3946 19.2652 21.5 19 21.5H5C4.73486 21.4997 4.48066 21.3943 4.29319 21.2068C4.10571 21.0193 4.00026 20.7651 4 20.5V6.49999C4.00026 6.23485 4.10571 5.98065 4.29319 5.79318C4.48066 5.6057 4.73486 5.50025 5 5.49999H9.55C9.66476 4.93485 9.97136 4.42675 10.4179 4.0618C10.8644 3.69685 11.4233 3.49748 12 3.49748C12.5767 3.49748 13.1356 3.69685 13.5821 4.0618C14.0286 4.42675 14.3352 4.93485 14.45 5.49999H19C19.2651 5.50025 19.5193 5.6057 19.7068 5.79318C19.8943 5.98065 19.9997 6.23485 20 6.49999V20.5Z" fill="black"/>
</svg>
