<svg width="24" height="25" viewBox="0 0 24 25" fill="none" xmlns="http://www.w3.org/2000/svg">
<path d="M13 4.5H21V6.5H13V4.5ZM13 11.5H21V13.5H13V11.5ZM13 18.5H21V20.5H13V18.5ZM6.5 19.5C5.39543 19.5 4.5 18.6046 4.5 17.5C4.5 16.3954 5.39543 15.5 6.5 15.5C7.60457 15.5 8.5 16.3954 8.5 17.5C8.5 18.6046 7.60457 19.5 6.5 19.5ZM6.5 21.5C8.70914 21.5 10.5 19.7091 10.5 17.5C10.5 15.2909 8.70914 13.5 6.5 13.5C4.29086 13.5 2.5 15.2909 2.5 17.5C2.5 19.7091 4.29086 21.5 6.5 21.5ZM5 6.5V9.5H8V6.5H5ZM3 4.5H10V11.5H3V4.5Z" fill="black"/>
</svg>
